<mxfile>
    <diagram id="IpaYKNE555SeSldH36kN" name="Page-1">
        <mxGraphModel dx="1554" dy="1143" grid="1" gridSize="10" guides="1" tooltips="1" connect="1" arrows="1" fold="1" page="1" pageScale="1" pageWidth="1654" pageHeight="1169" math="0" shadow="0">
            <root>
                <mxCell id="0"/>
                <mxCell id="1" parent="0"/>
                <mxCell id="2" value="Gradido" style="rounded=0;whiteSpace=wrap;html=1;labelPosition=center;verticalLabelPosition=middle;align=left;verticalAlign=top;fontSize=18;gradientColor=#ffd966;fillColor=#fff2cc;strokeColor=#d6b656;" vertex="1" parent="1">
                    <mxGeometry x="80" y="80" width="1100" height="1040" as="geometry"/>
                </mxCell>
                <mxCell id="3" value="Moduls and Services" style="text;html=1;strokeColor=none;fillColor=none;align=left;verticalAlign=middle;whiteSpace=wrap;rounded=0;fontSize=18;fontStyle=1" vertex="1" parent="1">
                    <mxGeometry x="80" y="40" width="200" height="20" as="geometry"/>
                </mxCell>
                <mxCell id="4" value="UI - Layer" style="rounded=0;whiteSpace=wrap;html=1;fontSize=18;align=left;verticalAlign=top;gradientColor=#b3b3b3;fillColor=#f5f5f5;strokeColor=#666666;" vertex="1" parent="1">
                    <mxGeometry x="100" y="120" width="1060" height="120" as="geometry"/>
                </mxCell>
                <mxCell id="5" value="User&#10;Internet-Browser&#10;(GDD-Application)" style="shape=module;align=left;spacingLeft=20;align=center;verticalAlign=top;fontSize=16;gradientColor=#ffd966;fillColor=#fff2cc;strokeColor=#d6b656;" vertex="1" parent="1">
                    <mxGeometry x="160" y="150" width="210" height="70" as="geometry"/>
                </mxCell>
                <mxCell id="6" value="User &#10;Mobile&#10;(GDD-Application)" style="shape=module;align=left;spacingLeft=20;align=center;verticalAlign=top;fontSize=16;gradientColor=#ffd966;fillColor=#fff2cc;strokeColor=#d6b656;" vertex="1" parent="1">
                    <mxGeometry x="400" y="150" width="210" height="70" as="geometry"/>
                </mxCell>
                <mxCell id="7" value="Admin&#10;Internet-Browser&#10;(GDD-Admin-Application)" style="shape=module;align=left;spacingLeft=20;align=center;verticalAlign=top;fontSize=16;gradientColor=#97d077;fillColor=#d5e8d4;strokeColor=#82b366;" vertex="1" parent="1">
                    <mxGeometry x="630" y="150" width="210" height="70" as="geometry"/>
                </mxCell>
                <mxCell id="8" value="Admin&#10;Internet-Browser&#10;(GDD-Monitoring-Application)" style="shape=module;align=left;spacingLeft=20;align=center;verticalAlign=top;fontSize=16;gradientColor=#7ea6e0;fillColor=#dae8fc;strokeColor=#6c8ebf;" vertex="1" parent="1">
                    <mxGeometry x="870" y="150" width="250" height="70" as="geometry"/>
                </mxCell>
                <mxCell id="9" value="Business - Layer" style="rounded=0;whiteSpace=wrap;html=1;fontSize=18;align=left;verticalAlign=top;gradientColor=#b3b3b3;fillColor=#f5f5f5;strokeColor=#666666;" vertex="1" parent="1">
                    <mxGeometry x="100" y="440" width="1060" height="440" as="geometry"/>
                </mxCell>
                <mxCell id="10" value="Persistenz - Layer" style="rounded=0;whiteSpace=wrap;html=1;fontSize=18;align=left;verticalAlign=top;gradientColor=#b3b3b3;fillColor=#f5f5f5;strokeColor=#666666;" vertex="1" parent="1">
                    <mxGeometry x="97" y="920" width="1063" height="160" as="geometry"/>
                </mxCell>
                <mxCell id="11" value="Client - Layer" style="rounded=0;whiteSpace=wrap;html=1;fontSize=18;align=left;verticalAlign=top;gradientColor=#b3b3b3;fillColor=#f5f5f5;strokeColor=#666666;" vertex="1" parent="1">
                    <mxGeometry x="100" y="280" width="1060" height="120" as="geometry"/>
                </mxCell>
                <mxCell id="12" value="GDD-Application &#10;Client&#10;(Apollo)" style="shape=module;align=left;spacingLeft=20;align=center;verticalAlign=top;fontSize=16;gradientColor=#ffd966;fillColor=#fff2cc;strokeColor=#d6b656;" vertex="1" parent="1">
                    <mxGeometry x="270" y="305" width="210" height="70" as="geometry"/>
                </mxCell>
                <mxCell id="13" value="GDD-Admin-Application&#10;Client&#10;(Apollo)" style="shape=module;align=left;spacingLeft=20;align=center;verticalAlign=top;fontSize=16;gradientColor=#97d077;fillColor=#d5e8d4;strokeColor=#82b366;" vertex="1" parent="1">
                    <mxGeometry x="630" y="310" width="210" height="70" as="geometry"/>
                </mxCell>
                <mxCell id="14" value="GDD-Monitoring-Application&#10;Client&#10;(Apollo)" style="shape=module;align=left;spacingLeft=20;align=center;verticalAlign=top;fontSize=16;gradientColor=#7ea6e0;fillColor=#dae8fc;strokeColor=#6c8ebf;" vertex="1" parent="1">
                    <mxGeometry x="870" y="310" width="250" height="70" as="geometry"/>
                </mxCell>
                <mxCell id="20" value="CommunityService" style="shape=module;align=left;spacingLeft=20;align=center;verticalAlign=top;fontSize=16;fillColor=#d5e8d4;strokeColor=#82b366;" vertex="1" parent="1">
                    <mxGeometry x="130" y="515" width="210" height="70" as="geometry"/>
                </mxCell>
                <mxCell id="21" value="BenutzerService" style="shape=module;align=left;spacingLeft=20;align=center;verticalAlign=top;fontSize=16;fillColor=#fff2cc;strokeColor=#d6b656;" vertex="1" parent="1">
                    <mxGeometry x="380" y="515" width="210" height="70" as="geometry"/>
                </mxCell>
                <mxCell id="22" value="KontoService" style="shape=module;align=left;spacingLeft=20;align=center;verticalAlign=top;fontSize=16;fillColor=#dae8fc;strokeColor=#6c8ebf;" vertex="1" parent="1">
                    <mxGeometry x="640" y="515" width="210" height="70" as="geometry"/>
                </mxCell>
                <mxCell id="23" value="BerechtigungService" style="shape=module;align=left;spacingLeft=20;align=center;verticalAlign=top;fontSize=16;fillColor=#f8cecc;strokeColor=#b85450;" vertex="1" parent="1">
                    <mxGeometry x="910" y="515" width="210" height="70" as="geometry"/>
                </mxCell>
                <mxCell id="24" value="GDTService" style="shape=module;align=left;spacingLeft=20;align=center;verticalAlign=top;fontSize=16;fillColor=#b0e3e6;strokeColor=#0e8088;" vertex="1" parent="1">
                    <mxGeometry x="910" y="640" width="210" height="70" as="geometry"/>
                </mxCell>
                <mxCell id="25" value="GDT Database" style="shape=module;align=left;spacingLeft=20;align=center;verticalAlign=top;fontSize=16;fillColor=#b0e3e6;strokeColor=#0e8088;" vertex="1" parent="1">
                    <mxGeometry x="525" y="965" width="210" height="70" as="geometry"/>
                </mxCell>
                <mxCell id="26" value="Gradido Database" style="shape=module;align=left;spacingLeft=20;align=center;verticalAlign=top;fontSize=16;gradientColor=#ffd966;fillColor=#fff2cc;strokeColor=#d6b656;" vertex="1" parent="1">
                    <mxGeometry x="160" y="965" width="210" height="70" as="geometry"/>
                </mxCell>
                <mxCell id="28" value="NodeService" style="shape=module;align=left;spacingLeft=20;align=center;verticalAlign=top;fontSize=16;fillColor=#1ba1e2;strokeColor=#006EAF;fontColor=#ffffff;" vertex="1" parent="1">
                    <mxGeometry x="910" y="760" width="210" height="70" as="geometry"/>
                </mxCell>
                <mxCell id="29" value="IdentityService" style="shape=module;align=left;spacingLeft=20;align=center;verticalAlign=top;fontSize=16;fillColor=#fff2cc;strokeColor=#d6b656;" vertex="1" parent="1">
                    <mxGeometry x="380" y="630" width="210" height="70" as="geometry"/>
                </mxCell>
                <mxCell id="31" value="IOTA" style="rounded=0;whiteSpace=wrap;html=1;labelPosition=center;verticalLabelPosition=middle;align=left;verticalAlign=top;fontSize=18;gradientColor=#7ea6e0;fillColor=#dae8fc;strokeColor=#6c8ebf;" vertex="1" parent="1">
                    <mxGeometry x="1240" y="930" width="360" height="150" as="geometry"/>
                </mxCell>
                <mxCell id="33" value="BlockChain" style="shape=module;align=left;spacingLeft=20;align=center;verticalAlign=top;fontSize=16;fillColor=#1ba1e2;strokeColor=#006EAF;fontColor=#ffffff;" vertex="1" parent="1">
                    <mxGeometry x="1315" y="965" width="210" height="70" as="geometry"/>
                </mxCell>
                <mxCell id="34" value="Elopage" style="rounded=0;whiteSpace=wrap;html=1;labelPosition=center;verticalLabelPosition=middle;align=left;verticalAlign=top;fontSize=18;gradientColor=#ffa500;fillColor=#ffcd28;strokeColor=#d79b00;" vertex="1" parent="1">
                    <mxGeometry x="1240" y="80" width="360" height="320" as="geometry"/>
                </mxCell>
                <mxCell id="35" value="User&#10;Internet-Browser&#10;(GDT-Application)" style="shape=module;align=left;spacingLeft=20;align=center;verticalAlign=top;fontSize=16;fillColor=#fff2cc;strokeColor=#d6b656;gradientColor=#ffd966;" vertex="1" parent="1">
                    <mxGeometry x="1315" y="140" width="210" height="70" as="geometry"/>
                </mxCell>
                <mxCell id="36" value="GDT-Application" style="shape=module;align=left;spacingLeft=20;align=center;verticalAlign=top;fontSize=16;fillColor=#b0e3e6;strokeColor=#0e8088;" vertex="1" parent="1">
                    <mxGeometry x="1260" y="290" width="150" height="70" as="geometry"/>
                </mxCell>
                <mxCell id="37" value="MarketPlace-&#10;Application" style="shape=module;align=left;spacingLeft=20;align=center;verticalAlign=top;fontSize=16;fillColor=#fff2cc;strokeColor=#d6b656;gradientColor=#ffd966;" vertex="1" parent="1">
                    <mxGeometry x="1430" y="290" width="150" height="70" as="geometry"/>
                </mxCell>
                <mxCell id="38" value="BlockChain" style="shape=module;align=left;spacingLeft=20;align=center;verticalAlign=top;fontSize=16;fillColor=#1ba1e2;strokeColor=#006EAF;fontColor=#ffffff;gradientDirection=south;gradientColor=#FFFFFF;" vertex="1" parent="1">
                    <mxGeometry x="900" y="965" width="210" height="70" as="geometry"/>
                </mxCell>
            </root>
        </mxGraphModel>
    </diagram>
</mxfile>